# xmcd CD database file
#
# Track frame offsets:
#	150
#	3065
#	24673
#	50323
#	82261
#	107665
#	132385
#	148550
#	177453
#	204695
#	228542
#	240467
#
# Disc length: 3272 seconds
#
# Revision: 0
# Processed by: cddbd v1.5.1PL0 Copyright (c) Steve Scherf et al.
# Submitted via: CDex 1.51
#
DISCID=a00cc60c
DTITLE=Mukajazz - Mukajazz
DYEAR=2005
DGENRE=Jazz
TTITLE0=Intro
TTITLE1=Sisn-uelos
TTITLE2=Nacci
TTITLE3=Nocturne
TTITLE4=Pedro Goes Bananas
TTITLE5=041
TTITLE6=Dzääm
TTITLE7=MKn Urut
TTITLE8=Toto (We are the World)
TTITLE9=Kaffeplörö
TTITLE10=Moonlight Sonata
TTITLE11=Outro
EXTD=YEAR: 2005
EXTT0=
EXTT1=
EXTT2=
EXTT3=
EXTT4=
EXTT5=
EXTT6=
EXTT7=
EXTT8=
EXTT9=
EXTT10=
EXTT11=
PLAYORDER=
